<?xml version="1.0" encoding="UTF-8" standalone="no"?><!-- Generator: Gravit.io --><svg xmlns="http://www.w3.org/2000/svg" xmlns:xlink="http://www.w3.org/1999/xlink" style="isolation:isolate" viewBox="0 0 512 512" width="512pt" height="512pt"><defs><clipPath id="_clipPath_iKGtPOiDGF1Kjnyjd6K3s61h4i3gkDwW"><rect width="512" height="512"/></clipPath></defs><g clip-path="url(#_clipPath_iKGtPOiDGF1Kjnyjd6K3s61h4i3gkDwW)"><path d="M 60 0 L 452 0 C 485.115 0 512 26.885 512 60 L 512 452 C 512 485.115 485.115 512 452 512 L 60 512 C 26.885 512 0 485.115 0 452 L 0 60 C 0 26.885 26.885 0 60 0 Z" style="stroke:none;fill:#F76300;stroke-miterlimit:10;"/><path d=" M 354.4 424.96 L 354.4 424.96 L 354.4 424.96 Q 280.158 424.96 238.765 380.768 L 238.765 380.768 L 238.765 380.768 Q 197.372 336.576 197.372 254.38 L 197.372 254.38 L 197.372 254.38 Q 197.372 174.834 240.827 130.937 L 240.827 130.937 L 240.827 130.937 Q 284.283 87.04 355.284 87.04 L 355.284 87.04 L 355.284 87.04 Q 412.144 87.04 451.328 111.493 L 451.328 111.493 L 433.062 166.585 L 433.062 166.585 Q 392.995 145.668 358.525 145.668 L 358.525 145.668 L 358.525 145.668 Q 319.342 145.668 296.804 173.656 L 296.804 173.656 L 296.804 173.656 Q 274.266 201.644 274.266 255.263 L 274.266 255.263 L 274.266 255.263 Q 274.266 309.472 296.509 337.755 L 296.509 337.755 L 296.509 337.755 Q 318.752 366.038 359.409 366.038 L 359.409 366.038 L 359.409 366.038 Q 401.833 366.038 441.016 340.996 L 441.016 340.996 L 448.382 399.623 L 448.382 399.623 Q 428.053 413.176 406.252 419.068 L 406.252 419.068 L 406.252 419.068 Q 384.451 424.96 354.4 424.96 Z  M 106.337 424.076 L 106.337 424.076 L 106.337 424.076 Q 87.187 424.076 73.93 410.819 L 73.93 410.819 L 73.93 410.819 Q 60.672 397.561 60.672 379.295 L 60.672 379.295 L 60.672 379.295 Q 60.672 360.735 73.782 347.182 L 73.782 347.182 L 73.782 347.182 Q 86.893 333.63 106.337 333.63 L 106.337 333.63 L 106.337 333.63 Q 125.192 333.63 138.155 347.182 L 138.155 347.182 L 138.155 347.182 Q 151.118 360.735 151.118 379.295 L 151.118 379.295 L 151.118 379.295 Q 151.118 397.561 138.155 410.819 L 138.155 410.819 L 138.155 410.819 Q 125.192 424.076 106.337 424.076 Z " fill-rule="evenodd" fill="rgb(234,234,234)"/></g></svg>