<?xml version="1.0" encoding="UTF-8" standalone="no"?><!-- Generator: Gravit.io --><svg xmlns="http://www.w3.org/2000/svg" xmlns:xlink="http://www.w3.org/1999/xlink" style="isolation:isolate" viewBox="0 0 960 150" width="960pt" height="150pt"><defs><clipPath id="_clipPath_kNk2wgftq2of5JuwYNWaMBv5C7hp7kpL"><rect width="960" height="150"/></clipPath></defs><g clip-path="url(#_clipPath_kNk2wgftq2of5JuwYNWaMBv5C7hp7kpL)"><path d=" M 96.889 145.286 L 96.889 145.286 L 96.889 145.286 Q 73.916 145.286 61.108 131.612 L 61.108 131.612 L 61.108 131.612 Q 48.299 117.938 48.299 92.503 L 48.299 92.503 L 48.299 92.503 Q 48.299 67.889 61.746 54.306 L 61.746 54.306 L 61.746 54.306 Q 75.192 40.723 97.163 40.723 L 97.163 40.723 L 97.163 40.723 Q 114.757 40.723 126.882 48.289 L 126.882 48.289 L 121.23 65.337 L 121.23 65.337 Q 108.831 58.864 98.165 58.864 L 98.165 58.864 L 98.165 58.864 Q 86.041 58.864 79.067 67.525 L 79.067 67.525 L 79.067 67.525 Q 72.093 76.185 72.093 92.777 L 72.093 92.777 L 72.093 92.777 Q 72.093 109.551 78.976 118.302 L 78.976 118.302 L 78.976 118.302 Q 85.858 127.054 98.439 127.054 L 98.439 127.054 L 98.439 127.054 Q 111.566 127.054 123.691 119.305 L 123.691 119.305 L 125.97 137.446 L 125.97 137.446 Q 119.68 141.64 112.934 143.463 L 112.934 143.463 L 112.934 143.463 Q 106.188 145.286 96.889 145.286 Z  M 180.029 144.739 L 180.029 144.739 L 180.029 144.739 Q 169.728 144.739 162.936 142.324 L 162.936 142.324 L 162.936 142.324 Q 156.145 139.908 152.225 134.62 L 152.225 134.62 L 152.225 134.62 Q 148.305 129.333 146.755 122.04 L 146.755 122.04 L 146.755 122.04 Q 145.205 114.747 145.205 103.899 L 145.205 103.899 L 145.205 6.263 L 169.09 4.714 L 169.09 103.443 L 169.09 103.443 Q 169.09 116.935 172.281 121.721 L 172.281 121.721 L 172.281 121.721 Q 175.471 126.507 184.679 126.507 L 184.679 126.507 L 184.679 126.507 Q 189.237 126.507 196.256 125.504 L 196.256 125.504 L 196.895 142.551 L 196.895 142.551 Q 196.803 142.551 194.661 143.007 L 194.661 143.007 L 194.661 143.007 Q 192.519 143.463 190.559 143.782 L 190.559 143.782 L 190.559 143.782 Q 188.599 144.101 185.59 144.42 L 185.59 144.42 L 185.59 144.42 Q 182.582 144.739 180.029 144.739 Z  M 251.866 127.145 L 251.866 127.145 L 251.866 127.145 Q 263.99 127.145 270.098 118.302 L 270.098 118.302 L 270.098 118.302 Q 276.206 109.459 276.206 92.959 L 276.206 92.959 L 276.206 92.959 Q 276.206 76.276 270.098 67.525 L 270.098 67.525 L 270.098 67.525 Q 263.99 58.773 251.683 58.773 L 251.683 58.773 L 251.683 58.773 Q 239.559 58.773 233.405 67.57 L 233.405 67.57 L 233.405 67.57 Q 227.252 76.367 227.252 93.05 L 227.252 93.05 L 227.252 93.05 Q 227.252 109.459 233.451 118.302 L 233.451 118.302 L 233.451 118.302 Q 239.65 127.145 251.866 127.145 Z  M 251.227 145.286 L 251.227 145.286 L 251.227 145.286 Q 228.984 145.286 216.221 130.883 L 216.221 130.883 L 216.221 130.883 Q 203.458 116.479 203.458 92.959 L 203.458 92.959 L 203.458 92.959 Q 203.458 68.71 216.221 54.716 L 216.221 54.716 L 216.221 54.716 Q 228.984 40.723 252.23 40.723 L 252.23 40.723 L 252.23 40.723 Q 274.656 40.723 287.373 54.99 L 287.373 54.99 L 287.373 54.99 Q 300.091 69.257 300.091 92.959 L 300.091 92.959 L 300.091 92.959 Q 300.091 116.935 287.237 131.111 L 287.237 131.111 L 287.237 131.111 Q 274.383 145.286 251.227 145.286 Z  M 363.449 145.286 L 363.449 145.286 L 363.449 145.286 Q 340.476 145.286 327.667 131.612 L 327.667 131.612 L 327.667 131.612 Q 314.859 117.938 314.859 92.503 L 314.859 92.503 L 314.859 92.503 Q 314.859 67.889 328.305 54.306 L 328.305 54.306 L 328.305 54.306 Q 341.752 40.723 363.722 40.723 L 363.722 40.723 L 363.722 40.723 Q 381.316 40.723 393.441 48.289 L 393.441 48.289 L 387.789 65.337 L 387.789 65.337 Q 375.391 58.864 364.725 58.864 L 364.725 58.864 L 364.725 58.864 Q 352.6 58.864 345.626 67.525 L 345.626 67.525 L 345.626 67.525 Q 338.652 76.185 338.652 92.777 L 338.652 92.777 L 338.652 92.777 Q 338.652 109.551 345.535 118.302 L 345.535 118.302 L 345.535 118.302 Q 352.418 127.054 364.998 127.054 L 364.998 127.054 L 364.998 127.054 Q 378.126 127.054 390.25 119.305 L 390.25 119.305 L 392.529 137.446 L 392.529 137.446 Q 386.239 141.64 379.493 143.463 L 379.493 143.463 L 379.493 143.463 Q 372.747 145.286 363.449 145.286 Z  M 435.376 143.372 L 411.491 143.372 L 411.491 6.263 L 435.376 4.714 L 435.376 66.248 L 434.829 86.486 L 434.829 86.486 Q 434.92 86.395 436.698 84.663 L 436.698 84.663 L 436.698 84.663 Q 438.475 82.931 438.658 82.749 L 438.658 82.749 L 438.658 82.749 Q 443.672 76.823 449.552 70.533 L 449.552 70.533 L 449.552 70.533 Q 455.432 64.243 464.411 55.127 L 464.411 55.127 L 464.411 55.127 Q 473.391 46.01 476.126 43.184 L 476.126 43.184 L 504.568 43.184 L 463.363 85.848 L 507.212 143.372 L 478.313 143.372 L 445.313 97.882 L 435.376 105.722 L 435.376 143.372 Z  M 561.363 143.372 L 537.843 143.372 L 507.486 43.184 L 531.826 43.184 L 551.061 116.661 L 551.061 116.661 Q 551.699 114.565 561.454 80.834 L 561.454 80.834 L 561.454 80.834 Q 571.208 47.104 572.484 43.184 L 572.484 43.184 L 597.007 43.184 L 597.007 43.184 Q 598.192 47.013 607.491 80.47 L 607.491 80.47 L 607.491 80.47 Q 616.789 113.926 617.519 116.388 L 617.519 116.388 L 637.301 43.184 L 661.277 43.184 L 629.917 143.372 L 606.123 143.372 L 606.123 143.372 Q 604.938 139.452 595.047 103.716 L 595.047 103.716 L 595.047 103.716 Q 585.156 67.98 584.336 65.154 L 584.336 65.154 L 584.336 65.154 Q 582.512 71.809 572.712 105.266 L 572.712 105.266 L 572.712 105.266 Q 562.912 138.723 561.363 143.372 L 561.363 143.372 Z  M 717.798 127.145 L 717.798 127.145 L 717.798 127.145 Q 729.922 127.145 736.03 118.302 L 736.03 118.302 L 736.03 118.302 Q 742.138 109.459 742.138 92.959 L 742.138 92.959 L 742.138 92.959 Q 742.138 76.276 736.03 67.525 L 736.03 67.525 L 736.03 67.525 Q 729.922 58.773 717.615 58.773 L 717.615 58.773 L 717.615 58.773 Q 705.491 58.773 699.337 67.57 L 699.337 67.57 L 699.337 67.57 Q 693.184 76.367 693.184 93.05 L 693.184 93.05 L 693.184 93.05 Q 693.184 109.459 699.383 118.302 L 699.383 118.302 L 699.383 118.302 Q 705.582 127.145 717.798 127.145 Z  M 717.16 145.286 L 717.16 145.286 L 717.16 145.286 Q 694.916 145.286 682.153 130.883 L 682.153 130.883 L 682.153 130.883 Q 669.39 116.479 669.39 92.959 L 669.39 92.959 L 669.39 92.959 Q 669.39 68.71 682.153 54.716 L 682.153 54.716 L 682.153 54.716 Q 694.916 40.723 718.162 40.723 L 718.162 40.723 L 718.162 40.723 Q 740.588 40.723 753.306 54.99 L 753.306 54.99 L 753.306 54.99 Q 766.023 69.257 766.023 92.959 L 766.023 92.959 L 766.023 92.959 Q 766.023 116.935 753.169 131.111 L 753.169 131.111 L 753.169 131.111 Q 740.315 145.286 717.16 145.286 Z  M 809.507 143.372 L 785.623 143.372 L 785.623 43.184 L 805.678 43.184 L 808.778 58.5 L 808.778 58.5 Q 818.624 42.728 837.312 42.728 L 837.312 42.728 L 837.312 42.728 Q 841.232 42.728 843.693 43.093 L 843.693 43.093 L 843.329 63.058 L 843.329 63.058 Q 839.682 62.511 835.762 62.511 L 835.762 62.511 L 835.762 62.511 Q 822.544 62.511 816.025 69.53 L 816.025 69.53 L 816.025 69.53 Q 809.507 76.55 809.507 89.039 L 809.507 89.039 L 809.507 143.372 Z  M 882.164 143.372 L 858.279 143.372 L 858.279 6.263 L 882.164 4.714 L 882.164 66.248 L 881.617 86.486 L 881.617 86.486 Q 881.708 86.395 883.486 84.663 L 883.486 84.663 L 883.486 84.663 Q 885.263 82.931 885.446 82.749 L 885.446 82.749 L 885.446 82.749 Q 890.46 76.823 896.34 70.533 L 896.34 70.533 L 896.34 70.533 Q 902.22 64.243 911.199 55.127 L 911.199 55.127 L 911.199 55.127 Q 920.179 46.01 922.914 43.184 L 922.914 43.184 L 951.356 43.184 L 910.151 85.848 L 954 143.372 L 925.101 143.372 L 892.101 97.882 L 882.164 105.722 L 882.164 143.372 Z  M 20.13 145.013 L 20.13 145.013 L 20.13 145.013 Q 14.205 145.013 10.102 140.911 L 10.102 140.911 L 10.102 140.911 Q 6 136.808 6 131.156 L 6 131.156 L 6 131.156 Q 6 125.413 10.057 121.219 L 10.057 121.219 L 10.057 121.219 Q 14.113 117.026 20.13 117.026 L 20.13 117.026 L 20.13 117.026 Q 25.965 117.026 29.976 121.219 L 29.976 121.219 L 29.976 121.219 Q 33.987 125.413 33.987 131.156 L 33.987 131.156 L 33.987 131.156 Q 33.987 136.808 29.976 140.911 L 29.976 140.911 L 29.976 140.911 Q 25.965 145.013 20.13 145.013 Z " fill="rgb(247,99,0)"/></g></svg>